<svg width="66" height="60" viewBox="0 0 66 60" fill="none" xmlns="http://www.w3.org/2000/svg">
<rect width="66" height="60" rx="8" fill="#EBF5FF"/>
<path d="M33 17.0008L14.7567 23.8422L33 32.9638L41.6891 28.6193L33.5377 26.1271C33.3699 26.2076 33.1862 26.2496 33 26.25C32.6685 26.25 32.3505 26.1183 32.1161 25.8839C31.8817 25.6495 31.75 25.3315 31.75 25C31.75 24.6685 31.8817 24.3505 32.1161 24.1161C32.3505 23.8817 32.6685 23.75 33 23.75L32.7933 24.422L34.2415 24.8676L34.2421 24.872L36.3791 25.5255L48.5469 29.2692V30.2181C48.3786 30.3326 48.2408 30.4864 48.1455 30.6663C48.0502 30.8461 48.0002 31.0465 48 31.2501C48.0002 31.4583 48.0525 31.6632 48.152 31.8461C48.2515 32.029 48.3951 32.1841 48.5698 32.2974C48.0008 34.4478 48 39.3268 48 41.25C49.25 42.0621 49.25 42.0918 50.5 41.25C50.5 39.327 50.4994 34.449 49.9305 32.2981C50.1052 32.1847 50.2489 32.0294 50.3483 31.8464C50.4478 31.6633 50.4999 31.4583 50.5 31.25C50.5 31.0462 50.4501 30.8456 50.3548 30.6655C50.2595 30.4853 50.1216 30.3313 49.9531 30.2167V28.2307L45.3184 26.8047L51.2433 23.8422L33 17.0008ZM22.3455 29.4531L21.3203 35.6047C23.3652 35.8721 25.8114 37.0607 28.0602 38.4662C29.3391 39.2656 30.537 40.143 31.5098 40.9943C32.1045 41.5146 32.6018 42.0138 33 42.505C33.3982 42.0138 33.8955 41.5146 34.4902 40.9943C35.463 40.143 36.6609 39.2656 37.9398 38.4662C40.1886 37.0607 42.6348 35.8721 44.6797 35.6047L43.6543 29.4531H43.166L33 34.5362L22.8338 29.4531H22.3455Z" fill="#2192FF"/>
</svg>
