<svg width="66" height="60" viewBox="0 0 66 60" fill="none" xmlns="http://www.w3.org/2000/svg">
<rect width="66" height="60" rx="8" fill="#DFFFF7"/>
<g clip-path="url(#clip0_25_216)">
<path d="M21 10V31.4667C19.4929 31.7727 18.138 32.5903 17.1648 33.781C16.1916 34.9717 15.66 36.4622 15.66 38C15.66 39.5378 16.1916 41.0283 17.1648 42.219C18.138 43.4097 19.4929 44.2273 21 44.5333V50H23.6667V44.5333C25.1737 44.2273 26.5286 43.4097 27.5018 42.219C28.475 41.0283 29.0067 39.5378 29.0067 38C29.0067 36.4622 28.475 34.9717 27.5018 33.781C26.5286 32.5903 25.1737 31.7727 23.6667 31.4667V10H21ZM42.3333 10V15.4667C40.8263 15.7727 39.4714 16.5903 38.4982 17.781C37.525 18.9717 36.9933 20.4622 36.9933 22C36.9933 23.5378 37.525 25.0283 38.4982 26.219C39.4714 27.4097 40.8263 28.2273 42.3333 28.5333V50H45V28.5333C46.507 28.2273 47.862 27.4097 48.8352 26.219C49.8084 25.0283 50.34 23.5378 50.34 22C50.34 20.4622 49.8084 18.9717 48.8352 17.781C47.862 16.5903 46.507 15.7727 45 15.4667V10H42.3333Z" fill="#238C72"/>
</g>
<defs>
<clipPath id="clip0_25_216">
<rect width="40" height="40" fill="white" transform="translate(13 10)"/>
</clipPath>
</defs>
</svg>
