<svg width="66" height="60" viewBox="0 0 66 60" fill="none" xmlns="http://www.w3.org/2000/svg">
<rect width="66" height="60" rx="8" fill="#FFF9E9"/>
<path fill-rule="evenodd" clip-rule="evenodd" d="M23.4517 13.52C22.1017 13.6966 21.3883 14.0216 20.8783 14.52C20.37 15.02 20.0383 15.72 19.8567 17.0416C19.67 18.4033 19.6667 20.2066 19.6667 22.7916V37.075C20.3266 36.6244 21.0589 36.2901 21.8317 36.0866C22.7117 35.855 23.7383 35.855 25.2433 35.8566H46.3333V22.7933C46.3333 20.2066 46.33 18.4033 46.1433 17.0416C45.9617 15.72 45.63 15.02 45.1217 14.52C44.6117 14.0216 43.8983 13.6966 42.5483 13.52C41.1583 13.3366 39.3183 13.3333 36.6783 13.3333H29.3217C26.6817 13.3333 24.8417 13.3366 23.4517 13.52ZM24.265 20.9916C24.265 20.245 24.8817 19.64 25.6433 19.64H40.3567C40.7183 19.6369 41.0664 19.7772 41.3247 20.0302C41.5831 20.2833 41.7306 20.6284 41.735 20.99C41.731 21.3519 41.5837 21.6974 41.3253 21.9508C41.0669 22.2042 40.7185 22.3448 40.3567 22.3416H25.6433C25.2817 22.3448 24.9336 22.2044 24.6753 21.9514C24.4169 21.6984 24.2694 21.3532 24.265 20.9916ZM25.6433 25.9466C25.2817 25.9435 24.9336 26.0839 24.6753 26.3369C24.4169 26.5899 24.2694 26.9351 24.265 27.2966C24.265 28.0433 24.8817 28.6483 25.6433 28.6483H34.8383C35.2002 28.6519 35.5488 28.5117 35.8075 28.2587C36.0662 28.0056 36.2139 27.6602 36.2183 27.2983C36.2144 26.9361 36.0668 26.5903 35.808 26.3369C35.5493 26.0835 35.2005 25.9431 34.8383 25.9466H25.6433Z" fill="#FECF48"/>
<path d="M25.455 38.5583H46.3333C46.3283 40.4417 46.2983 41.8483 46.145 42.9583C45.9633 44.28 45.6317 44.98 45.1233 45.48C44.6133 45.9783 43.9 46.3033 42.55 46.48C41.16 46.6634 39.32 46.6667 36.68 46.6667H29.3217C26.6817 46.6667 24.8417 46.6633 23.4517 46.4817C22.1017 46.3033 21.3883 45.9783 20.8783 45.48C20.37 44.98 20.0383 44.28 19.8567 42.9583C19.7883 42.4583 19.7433 41.8967 19.7167 41.2583C19.9451 40.6341 20.3219 40.0747 20.8147 39.6284C21.3074 39.1821 21.9012 38.8624 22.545 38.6967C23.0283 38.57 23.6567 38.5583 25.455 38.5583Z" fill="#FECF48"/>
</svg>
