<svg width="30" height="30" viewBox="0 0 30 30" fill="none" xmlns="http://www.w3.org/2000/svg">
<rect width="30" height="30" rx="15" fill="#238C72"/>
<path d="M15.0008 12.75C14.404 12.75 13.8317 12.9871 13.4098 13.409C12.9878 13.831 12.7508 14.4033 12.7508 15C12.7508 15.5967 12.9878 16.169 13.4098 16.591C13.8317 17.0129 14.404 17.25 15.0008 17.25C15.5975 17.25 16.1698 17.0129 16.5917 16.591C17.0137 16.169 17.2508 15.5967 17.2508 15C17.2508 14.4033 17.0137 13.831 16.5917 13.409C16.1698 12.9871 15.5975 12.75 15.0008 12.75ZM15.0008 11.25C15.9953 11.25 16.9491 11.6451 17.6524 12.3483C18.3557 13.0516 18.7507 14.0054 18.7507 15C18.7507 15.9946 18.3557 16.9484 17.6524 17.6517C16.9491 18.3549 15.9953 18.75 15.0008 18.75C14.0062 18.75 13.0524 18.3549 12.3491 17.6517C11.6458 16.9484 11.2508 15.9946 11.2508 15C11.2508 14.0054 11.6458 13.0516 12.3491 12.3483C13.0524 11.6451 14.0062 11.25 15.0008 11.25ZM19.8757 11.0625C19.8757 11.3111 19.777 11.5496 19.6012 11.7254C19.4253 11.9012 19.1869 12 18.9382 12C18.6896 12 18.4512 11.9012 18.2753 11.7254C18.0995 11.5496 18.0007 11.3111 18.0007 11.0625C18.0007 10.8139 18.0995 10.5754 18.2753 10.3996C18.4512 10.2238 18.6896 10.125 18.9382 10.125C19.1869 10.125 19.4253 10.2238 19.6012 10.3996C19.777 10.5754 19.8757 10.8139 19.8757 11.0625ZM15.0008 9C13.1453 9 12.8422 9.00525 11.979 9.0435C11.391 9.07125 10.9965 9.15 10.6305 9.2925C10.3244 9.40528 10.0475 9.58548 9.8205 9.81975C9.58595 10.0467 9.4055 10.3236 9.2925 10.6297C9.15 10.9972 9.07125 11.391 9.04425 11.9783C9.00525 12.8063 9 13.0957 9 15C9 16.8562 9.00525 17.1585 9.0435 18.0217C9.07125 18.609 9.15 19.0043 9.29175 19.3695C9.41925 19.6958 9.56925 19.9305 9.81825 20.1795C10.071 20.4315 10.3057 20.5822 10.6283 20.7067C10.9987 20.85 11.3933 20.9295 11.9783 20.9565C12.8063 20.9955 13.0957 21 15 21C16.8562 21 17.1585 20.9948 18.0217 20.9565C18.6082 20.9288 19.0028 20.85 19.3695 20.7083C19.6756 20.5955 19.9525 20.4153 20.1795 20.181C20.4323 19.929 20.583 19.6942 20.7075 19.371C20.85 19.002 20.9295 18.6075 20.9565 18.021C20.9955 17.1937 21 16.9035 21 15C21 13.1445 20.9948 12.8415 20.9565 11.9783C20.9288 11.3918 20.8493 10.9957 20.7075 10.6297C20.5947 10.3236 20.4145 10.0468 20.1803 9.81975C19.9533 9.58521 19.6764 9.40475 19.3702 9.29175C19.0027 9.14925 18.6082 9.0705 18.0217 9.0435C17.1945 9.0045 16.905 9 15 9M15 7.5C17.0378 7.5 17.292 7.5075 18.0922 7.545C18.8902 7.5825 19.4347 7.70775 19.9125 7.89375C20.4075 8.08425 20.8245 8.34225 21.2415 8.7585C21.623 9.1333 21.9181 9.58685 22.1063 10.0875C22.2915 10.5652 22.4175 11.1097 22.455 11.9085C22.4903 12.708 22.5 12.9622 22.5 15C22.5 17.0378 22.4925 17.292 22.455 18.0915C22.4175 18.891 22.2915 19.434 22.1063 19.9125C21.9181 20.4131 21.623 20.8667 21.2415 21.2415C20.8667 21.623 20.4131 21.9181 19.9125 22.1063C19.4347 22.2915 18.8902 22.4175 18.0922 22.455C17.292 22.4903 17.0378 22.5 15 22.5C12.9622 22.5 12.708 22.4925 11.9078 22.455C11.1097 22.4175 10.566 22.2915 10.0875 22.1063C9.58685 21.9181 9.1333 21.623 8.7585 21.2415C8.37698 20.8667 8.08186 20.4131 7.89375 19.9125C7.70775 19.4347 7.5825 18.8903 7.545 18.0915C7.509 17.292 7.5 17.0378 7.5 15C7.5 12.9622 7.5075 12.708 7.545 11.9085C7.5825 11.109 7.70775 10.566 7.89375 10.0875C8.08186 9.58685 8.37698 9.1333 8.7585 8.7585C9.1333 8.37698 9.58685 8.08186 10.0875 7.89375C10.5652 7.70775 11.109 7.5825 11.9078 7.545C12.7087 7.50975 12.963 7.5 15.0008 7.5" fill="white"/>
</svg>
