<svg width="30" height="30" viewBox="0 0 30 30" fill="none" xmlns="http://www.w3.org/2000/svg">
<rect width="30" height="30" rx="15" fill="#238C72"/>
<path fill-rule="evenodd" clip-rule="evenodd" d="M12.129 17.8716C15.0128 20.7554 17.685 21.0711 18.4695 21.1004C19.4175 21.1349 20.385 20.3609 20.8035 19.5681C20.136 18.7851 19.2668 18.1776 18.315 17.5191C17.7533 18.0801 17.061 19.1226 16.1392 18.7491C15.615 18.5384 14.3205 17.9421 13.1895 16.8104C12.0585 15.6786 11.4622 14.3849 11.25 13.8614C10.8765 12.9381 11.922 12.2444 12.4838 11.6826C11.8253 10.7151 11.2283 9.82336 10.4467 9.18961C9.64275 9.60961 8.86425 10.5696 8.8995 11.5304C8.92875 12.3149 9.2445 14.9871 12.129 17.8716ZM18.414 22.5996C17.334 22.5599 14.2733 22.1369 11.0677 18.9321C7.863 15.7266 7.44075 12.6666 7.40025 11.5859C7.34025 9.93886 8.60175 8.33911 10.059 7.71436C10.2345 7.63858 10.4267 7.60973 10.6166 7.63064C10.8066 7.65154 10.9879 7.72149 11.1427 7.83361C12.3488 8.71336 13.1805 10.0461 13.8953 11.0901C14.0439 11.3072 14.1121 11.5694 14.0878 11.8314C14.0636 12.0934 13.9485 12.3387 13.7625 12.5249L12.7455 13.5426C12.9818 14.0639 13.4625 14.9624 14.25 15.7499C15.0375 16.5374 15.936 17.0181 16.458 17.2544L17.4742 16.2374C17.6609 16.0506 17.9072 15.9354 18.1702 15.9119C18.4332 15.8885 18.696 15.9583 18.9127 16.1091C19.9777 16.8471 21.2288 17.6669 22.1407 18.8346C22.262 18.9905 22.3391 19.1762 22.364 19.3721C22.389 19.568 22.3608 19.767 22.2825 19.9484C21.6547 21.4131 20.0662 22.6604 18.414 22.5996Z" fill="white"/>
</svg>
