<svg width="66" height="60" viewBox="0 0 66 60" fill="none" xmlns="http://www.w3.org/2000/svg">
<rect width="66" height="60" rx="8" fill="#FDF1ED"/>
<path fill-rule="evenodd" clip-rule="evenodd" d="M33 13.3333C31.6 13.3333 30.25 13.67 29.1967 14.3033C28.175 14.915 27.1667 15.995 27.1667 17.5C27.1667 19.005 28.175 20.0833 29.1967 20.6966C30.25 21.33 31.5983 21.6666 33 21.6666C34.4 21.6666 35.75 21.33 36.8033 20.6966C37.825 20.085 38.8333 19.005 38.8333 17.5C38.8333 15.995 37.825 14.9166 36.8033 14.3033C35.75 13.67 34.4 13.3333 33 13.3333ZM33 38.3333C31.6 38.3333 30.25 38.67 29.1967 39.3033C28.175 39.915 27.1667 40.9933 27.1667 42.5C27.1667 44.0066 28.175 45.0833 29.1967 45.6966C30.25 46.33 31.5983 46.6666 33 46.6666C34.4 46.6666 35.75 46.33 36.8033 45.6966C37.825 45.085 38.8333 44.0066 38.8333 42.5C38.8333 40.9933 37.825 39.9166 36.8033 39.3033C35.75 38.67 34.4 38.3333 33 38.3333ZM18.5667 21.6666C17.8667 22.88 17.4833 24.2166 17.5033 25.445C17.5233 26.6366 17.9533 28.0483 19.2583 28.8016C20.5633 29.555 22 29.22 23.0417 28.6433C24.1167 28.0466 25.0833 27.0466 25.7833 25.8333C26.4833 24.62 26.8667 23.2833 26.845 22.055C26.825 20.8633 26.395 19.4516 25.0917 18.6983C23.7867 17.945 22.3483 18.28 21.3083 18.8566C20.2333 19.455 19.2667 20.4533 18.5667 21.6666ZM40.2167 34.1666C39.5167 35.38 39.1333 36.7166 39.155 37.945C39.175 39.1366 39.605 40.5483 40.9083 41.3016C42.2117 42.055 43.65 41.72 44.6917 41.1433C45.7667 40.5466 46.7333 39.5466 47.4333 38.3333C48.1333 37.12 48.5167 35.7833 48.495 34.555C48.475 33.3633 48.045 31.9516 46.7417 31.1983C45.4383 30.445 44 30.78 42.9583 31.3583C41.8833 31.9533 40.9167 32.9533 40.2167 34.1666ZM21.3083 41.1433C20.2333 40.5466 19.2667 39.5466 18.5667 38.3333C17.8667 37.12 17.4833 35.7833 17.5033 34.555C17.5233 33.3633 17.9533 31.9516 19.2583 31.1983C20.5633 30.445 22 30.78 23.0417 31.3583C24.1167 31.9533 25.0833 32.9533 25.7833 34.1666C26.4833 35.38 26.8667 36.7166 26.845 37.945C26.825 39.1366 26.395 40.5483 25.0917 41.3016C23.7867 42.055 22.3483 41.72 21.3083 41.1433ZM42.9583 28.6433C41.8833 28.0466 40.9167 27.0466 40.2167 25.8333C39.5167 24.62 39.1333 23.2833 39.155 22.055C39.175 20.8633 39.605 19.4516 40.9083 18.6983C42.2117 17.945 43.65 18.28 44.6917 18.8566C45.7667 19.455 46.7333 20.4533 47.4333 21.6666C48.1333 22.88 48.5167 24.2166 48.495 25.445C48.475 26.6366 48.045 28.0483 46.7417 28.8016C45.4383 29.555 44 29.22 42.9583 28.6433Z" fill="#E86932"/>
</svg>
